<svg xmlns="http://www.w3.org/2000/svg" fill="none" viewBox="0 0 32 32" height="32" width="32">
<g opacity="0.6">
<path stroke-linejoin="round" stroke-linecap="round" stroke-width="1.5" stroke="black" d="M2.23975 14.0531C5.6521 10.3325 10.5537 8 16 8C21.4464 8 26.348 10.3325 29.7603 14.0531M25.1379 16.957C22.7513 14.7101 19.5364 13.3333 16 13.3333C12.4636 13.3333 9.24868 14.7101 6.86214 16.957M21.1884 20.5772C19.7915 19.3858 17.9797 18.6667 15.9999 18.6667C14.0201 18.6667 12.2082 19.3858 10.8114 20.5772M16.6668 24C16.6668 24.3682 16.3684 24.6667 16.0002 24.6667C15.632 24.6667 15.3335 24.3682 15.3335 24M16.6668 24C16.6668 23.6318 16.3684 23.3333 16.0002 23.3333C15.632 23.3333 15.3335 23.6318 15.3335 24M16.6668 24L15.3335 24"></path>
</g>
</svg>
