<svg xmlns="http://www.w3.org/2000/svg" fill="none" viewBox="0 0 42 42" height="42" width="42">
<path stroke-miterlimit="10" stroke-width="1.5" stroke="black" d="M10.4131 23.8665L14.9131 35.0532M34.5798 25.4799C34.5798 25.4799 29.6131 21.5665 27.7331 24.8865C25.2798 29.2132 25.5731 32.5732 25.6198 32.9399C25.6665 33.3065 26.3665 35.7399 29.8465 35.6932C32.8465 35.6532 34.2265 27.1332 34.2265 27.1332C34.2265 27.1332 36.0131 17.9799 31.5931 12.1932C27.1731 6.40654 21.1931 6.83987 21.1931 6.83987C21.1931 6.83987 14.9065 6.40654 10.4865 12.1932C6.06648 17.9799 7.85315 27.1332 7.85315 27.1332C7.85315 27.1332 9.23315 35.6532 12.2331 35.6932C15.7131 35.7399 16.4198 33.2999 16.4598 32.9399C16.4998 32.5799 16.7931 29.2199 14.3465 24.8865C12.4665 21.5599 7.49982 25.4799 7.49982 25.4799M31.6665 23.8665L27.1665 35.0532"></path>
</svg>
