<svg xmlns="http://www.w3.org/2000/svg" fill="none" viewBox="0 0 42 42" height="42" width="42">
<path stroke-miterlimit="10" stroke-width="1.5" stroke="black" d="M24.6404 20.5931L18.3337 34.0931C17.887 35.0664 16.727 35.4864 15.7537 35.0264L14.4137 34.4064C13.4404 33.9597 13.0204 32.7997 13.4804 31.8264L18.307 21.4931M14.2004 30.6464L18.4804 32.7864M16.8737 14.7264C17.1204 15.5464 17.0004 16.3064 16.6137 16.4197C16.227 16.5331 15.7137 15.9597 15.467 15.1397M16.8737 14.7197C16.627 13.8997 16.1137 13.3264 15.727 13.4397C15.3404 13.5531 15.2204 14.3131 15.467 15.1331M15.8337 13.7997L16.5404 16.1864M25.947 12.4731C25.8404 12.0464 25.407 11.7864 24.987 11.8931L22.747 12.4464C22.3204 12.5531 22.0604 12.9864 22.167 13.4064C22.2737 13.8331 22.707 14.0931 23.127 13.9864L25.367 13.4331C25.7937 13.3264 26.0537 12.8931 25.947 12.4731ZM25.947 12.4731L22.4137 13.3464M21.2404 6.91972L18.087 7.41306C14.267 8.00639 11.6537 11.5864 12.2537 15.3997C12.847 19.2197 16.427 21.8264 20.247 21.2331L23.4004 20.7397C27.2204 20.1464 29.8337 16.5664 29.2404 12.7464C28.6404 8.93306 25.0604 6.31972 21.2404 6.91972Z"></path>
</svg>
