<svg xmlns="http://www.w3.org/2000/svg" fill="none" viewBox="0 0 42 42" height="42" width="42">
<path stroke-width="1.5" stroke="black" d="M9.66602 20.7489C9.66602 26.2832 10.916 31.3144 13.166 32.8238C15.416 34.3332 16.166 34.3332 20.666 34.3332C25.166 34.3332 25.916 34.3332 28.166 32.8238C30.416 31.3144 31.666 26.2832 31.666 20.7489M9.66602 21.252C9.66602 15.7177 11.166 10.7871 13.166 9.17711C15.166 7.56712 16.166 7.66775 20.666 7.66775C25.166 7.66775 26.166 7.56712 28.166 9.17711C30.166 10.7871 31.666 15.7177 31.666 21.252M20.666 21.5036C22.456 21.5036 23.916 22.9727 23.916 24.7739C23.916 26.575 22.456 28.0442 20.666 28.0442C18.876 28.0442 17.416 26.575 17.416 24.7739C17.416 22.9727 18.876 21.5036 20.666 21.5036ZM20.666 14.0473C21.346 14.0473 21.886 14.6008 21.886 15.2749C21.886 15.9491 21.336 16.5026 20.666 16.5026C19.996 16.5026 19.446 15.9491 19.446 15.2749C19.446 14.6008 19.996 14.0473 20.666 14.0473Z"></path>
</svg>
