<svg xmlns="http://www.w3.org/2000/svg" fill="none" viewBox="0 0 32 32" height="32" width="32">
<g opacity="0.6">
<path stroke-linejoin="round" stroke-linecap="round" stroke-width="1.5" stroke="black" d="M11.6001 27.5333C11.6001 27.5333 5.00006 29.1867 5.00006 22.5867L5.00006 10.2133C5.00006 8.09334 5.82673 5.26667 9.12006 3.61334C12.4134 1.96001 15.0801 2.20001 16.7467 2.74667C17.8801 3.12001 21.4934 4.44001 22.3201 8.57334C23.1467 12.7067 22.3201 14.3467 20.6667 16.8267M19.3734 11.4533C19.0801 7.89334 16.7734 6.85334 16.7734 6.85334C16.7734 6.85334 15.0934 5.77334 12.0134 6.48C8.93339 7.18667 8.64006 10 8.64006 11.0267L8.64006 17.6M13.1467 19.6C13.1467 19.6 16.0667 16.5067 15.5601 15.0267C15.0534 13.5467 13.0801 13.4133 13.0801 13.4133L8.62673 13.4133M19.8534 19.5067L19.8534 29.6267M22.8534 20.9467L22.8534 28.1867M16.8534 20.9467L16.8534 28.1867M13.8401 22.7067L13.8401 26.4267M25.8534 22.28L25.8534 26.8667"></path>
</g>
</svg>
