<svg width="150" height="27" viewBox="0 0 150 27" fill="none" xmlns="http://www.w3.org/2000/svg">
<path d="M0 23.5881C1.95482 23.5881 2.73675 22.6758 2.73675 20.5907V5.47341C2.73675 3.38826 2.08514 2.47601 0 2.47601V0.390869H11.2076C17.3328 0.390869 21.3727 3.12762 21.3727 7.94951C21.3727 12.3804 17.7237 15.5082 11.0773 15.5082H9.25282V20.4604C9.25282 22.8062 10.4257 23.4578 13.6838 23.4578V25.5429H0V23.5881ZM9.25282 2.34569V13.6837H10.2954C13.4231 13.6837 15.1173 11.3379 15.1173 7.94951C15.1173 4.43083 13.4231 2.34569 10.1651 2.34569H9.25282Z" fill="white"/>
<path d="M21.6333 23.5882C23.4578 23.5882 24.1094 22.8063 24.1094 20.8514V13.8141C24.1094 12.7715 23.3274 12.1199 22.2849 12.2502H21.6333V10.0348L28.5403 7.94961H30.2345V20.7211C30.2345 22.6759 30.8861 23.4579 32.7106 23.4579V25.543H21.5029V23.5882H21.6333ZM27.2371 0.651611C29.0616 0.651611 30.6254 2.21547 30.6254 4.03997C30.6254 5.86447 29.0616 7.42833 27.2371 7.42833C25.4126 7.42833 23.8487 5.86447 23.8487 4.03997C23.8487 2.21547 25.2823 0.651611 27.2371 0.651611Z" fill="white"/>
<path d="M34.4044 11.3379H32.0586V9.90436C34.7953 9.12243 38.1837 6.90696 39.2263 3.64893H40.5295V9.12243H44.8301V11.3379H40.5295V19.8088C40.5295 21.8939 41.7024 22.5455 42.8753 22.5455C43.6572 22.5455 44.5695 22.2849 45.0907 21.8939L45.7423 23.0668C44.6998 24.761 42.2237 26.0642 39.7476 26.0642C36.0986 26.0642 34.4044 23.8488 34.4044 20.1998V11.3379Z" fill="white"/>
<path d="M54.6045 7.94971C56.9503 7.94971 59.0354 8.60131 60.9902 9.64389L58.7748 15.6387H57.3412C56.9503 11.9897 55.2561 10.5561 53.4316 10.5561C51.2161 10.5561 49.9129 12.511 49.9129 15.1174C49.9129 19.027 52.6497 20.9819 55.5167 20.9819C57.7322 20.9819 58.9051 20.0696 59.687 18.3754L60.9902 18.8967C60.2083 22.9367 58.3838 26.0644 53.4316 26.0644C48.8703 26.0644 45.6123 22.8064 45.6123 17.7238C45.7426 11.729 49.2613 7.94971 54.6045 7.94971Z" fill="white"/>
<path d="M60.4696 23.5882C62.2941 23.5882 62.9457 22.8063 62.9457 20.8514V5.73414C62.9457 4.69157 62.1638 4.17029 61.1212 4.17029H60.3393V1.8245L67.7676 0H69.0708V11.5986C69.9831 9.1225 71.8076 7.94961 74.2837 7.94961C77.5417 7.94961 79.7572 9.77411 79.7572 13.5534V20.7211C79.7572 22.6759 80.4088 23.4579 82.2333 23.4579V25.543H71.9379V23.4579C73.5018 23.4579 73.5018 22.5456 73.5018 20.8514V13.6838C73.5018 12.1199 72.7198 11.338 71.2863 11.338C70.1134 11.338 69.2012 12.1199 68.9405 13.2928V20.8514C68.9405 22.5456 69.0708 23.4579 70.5044 23.4579V25.543H60.209V23.5882H60.4696Z" fill="white"/>
<path d="M83.2754 23.5882C85.0999 23.5882 85.7515 22.8063 85.7515 20.8514V11.338H83.2754V9.90443C85.2302 9.90443 85.8818 9.38315 85.8818 7.94961C85.8818 4.56125 88.8792 0 95.0043 0C96.9591 0 99.0443 0.651607 100.869 1.43354L98.2624 7.94961L96.9591 7.68897C97.0895 4.17029 95.9166 1.95482 93.8314 1.95482C92.1372 1.95482 91.225 3.38836 91.225 5.21286C91.225 6.77672 91.616 8.07993 91.8766 9.1225H95.5256V11.338H92.0069V20.7211C92.0069 22.6759 92.6585 23.4579 94.483 23.4579V25.543H83.2754V23.5882Z" fill="white"/>
<path d="M95.3955 16.9418C95.3955 11.0774 99.5658 7.81934 104.388 7.81934C109.21 7.81934 113.38 11.0774 113.38 16.9418C113.38 22.8063 109.21 26.0643 104.388 26.0643C99.5658 26.0643 95.3955 22.8063 95.3955 16.9418ZM102.303 16.9418C102.303 22.676 102.824 24.3702 104.388 24.3702C105.952 24.3702 106.473 22.676 106.473 16.9418C106.473 11.2077 105.952 9.51352 104.388 9.51352C102.824 9.64384 102.303 11.338 102.303 16.9418Z" fill="white"/>
<path d="M113.771 23.5882C115.595 23.5882 116.247 22.8063 116.247 20.8515V14.0748C116.247 13.0322 115.465 12.3806 114.423 12.3806H113.641V10.1651L120.157 8.2103H121.981V10.9471C121.981 12.3806 121.851 14.4657 121.851 15.2477H121.981C122.502 10.0348 124.848 7.81934 127.585 7.81934C128.106 7.81934 128.237 7.81934 128.628 7.94966V13.9444C126.412 13.5535 122.502 13.6838 122.502 17.7238V20.7212C122.502 22.676 123.154 23.4579 124.979 23.4579V25.5431H113.771V23.5882Z" fill="white"/>
<path d="M128.106 23.5882C129.93 23.5882 130.582 22.8063 130.582 20.8514V5.73414C130.582 4.69157 129.8 4.17029 128.758 4.17029H127.976V1.8245L135.534 0H136.837V15.8992H137.098L140.095 14.4657C141.529 13.8141 141.79 13.1625 141.79 12.2502C141.79 11.0773 140.877 10.4257 139.444 10.4257V8.34057H148.566V10.1651C146.612 12.5109 144.787 13.4231 142.702 14.4657L146.742 19.9392C148.045 21.6334 148.827 23.4579 150.13 23.4579V25.543H142.441L137.098 16.9418H136.837V21.2424C136.837 22.6759 136.968 23.3275 138.401 23.3275V25.4127H128.106V23.5882Z" fill="white"/>
</svg>
