<svg width="150" height="27" viewBox="0 0 150 27" fill="none" xmlns="http://www.w3.org/2000/svg">
<path d="M17.5241 6.01699C17.5241 3.86822 16.0567 2.51231 14.1229 2.51231C13.6714 2.51231 12.5224 2.52709 12.1219 2.57142L10.7808 10.885C11.0254 10.9071 11.4473 10.885 11.6704 10.885C14.8559 10.885 17.5241 8.81009 17.5241 6.01699ZM41.3084 0.882266L38.6335 17.2057C38.5227 17.8722 38.5153 18.1389 39.7825 18.1389L39.4633 20.2286H37.2628C38.4709 20.785 39.6488 21.6517 39.6488 22.7926C39.6488 24.9783 37.5 26.7192 31.8687 26.7192C21.4433 26.7192 14.5603 21.3998 12.1958 13.4039H10.3507L9.5505 18.436C9.40197 19.3988 9.41675 19.7106 11.1288 19.8214L12.3074 19.9027L11.8256 22.3626C10.1209 22.2584 8.23892 22.169 6.36429 22.1771C4.66035 22.1771 2.86699 22.2658 1.17783 22.3626L1.57833 19.9027C2.02315 19.8805 2.32684 19.8805 2.61576 19.8502C2.88325 19.8281 3.14704 19.7734 3.40123 19.6877C3.87561 19.5392 4.2606 19.2355 4.36404 18.6207L6.90591 3.2904C6.18168 3.41786 5.47182 3.61661 4.7867 3.88374C4.22364 4.10542 3.60812 4.61675 3.60812 5.03202C3.60812 5.2101 3.64581 5.3431 3.7197 5.46207C3.81576 5.60985 3.93473 5.7436 3.93473 5.9431C3.93473 6.0835 3.87562 6.16551 3.80173 6.26231C3.43153 6.70714 2.60098 7.06182 1.8229 7.06182C1.58355 7.06191 1.34653 7.01485 1.12537 6.92333C0.904205 6.8318 0.703242 6.69759 0.53396 6.52838C0.364678 6.35916 0.230391 6.15826 0.138772 5.93714C0.0471536 5.71601 -1.96798e-08 5.479 0 5.23965V5.21748C0 2.34975 3.5867 1.20073 5.88326 0.749255C8.46527 0.277078 11.0829 0.0266576 13.7076 0.000732422C19.0057 0.000732422 22.851 1.65295 22.851 5.83226C22.851 9.27044 20.2434 11.4931 17.4495 12.4411C19.5761 19.0736 24.7699 24.0525 31.4387 24.0525C33.9732 24.0525 34.8621 22.9707 34.8621 21.9111C34.8758 21.4791 34.7174 21.0593 34.4217 20.7441C34.126 20.4288 33.7172 20.2439 33.2852 20.2301L33.2099 20.2293H32.1576L32.5581 18.1397C33.2993 18.1397 34.1143 18.0731 34.2399 17.3106L36.1441 5.53595C36.1736 5.32906 36.0924 5.24039 35.8773 5.24039H34.1062L34.4549 3.37315L41.0941 0.668718L41.3091 0.891128V0.882266H41.3084ZM137.263 18.1382L136.863 20.2278H129.72L130.068 18.1382C131.165 18.1382 131.321 18.0421 131.462 17.1015L132.239 11.9594C132.374 11.0778 131.84 10.7808 131.329 10.7808C130.292 10.7808 129.218 11.8626 129.032 13.1076L128.387 17.2788C128.291 17.8722 128.387 18.1382 129.618 18.1382L129.292 20.2278H122.045L122.416 18.1382C123.726 18.1382 123.949 17.9461 124.075 17.1458L124.934 11.8478C124.994 11.4768 124.934 11.4259 124.639 11.4259H123.06L123.386 9.60296L129.854 6.82389L130.048 7.00935L129.751 8.63941C130.937 7.58719 132.248 6.84606 133.738 6.84606C135.598 6.84606 136.843 8.59433 136.843 10.4623C136.843 10.8998 136.805 11.2544 136.708 11.8773L135.85 17.0941C135.701 17.9682 135.857 18.1308 137.272 18.1308L137.263 18.1382ZM111.077 7.46897L109.847 10.0847C109.378 9.89525 108.878 9.79477 108.372 9.78842H106.906L105.913 15.8645C105.735 16.9544 105.942 17.1466 106.506 17.1466C107.113 17.1466 107.736 16.8347 108.855 15.8128L109.818 17.7089C108.492 19.1165 106.803 20.5988 104.654 20.5988C102.372 20.5988 101.364 19.2946 101.364 17.2271C101.364 16.7897 101.439 16.1963 101.498 15.7825L102.461 9.78769L100.78 9.81724L101.18 7.52068L102.78 7.54285L103.159 5.11255L107.575 3.3192L107.871 3.61551L107.249 7.49039L111.079 7.46084V7.46897H111.077ZM102.275 0.911817C101.709 2.87282 101.253 4.86416 100.911 6.87635H98.3402C98.5773 6.02438 98.6512 5.49088 98.6586 5.02389C98.6815 3.91182 97.4143 3.20837 95.533 3.20837C93.6067 3.20837 92.3172 4.19408 92.2943 5.43103C92.2729 6.60221 92.717 7.09137 94.1993 8.13546L96.7626 9.95098C99.1485 11.6401 100.586 13.2192 100.541 15.9451C100.46 20.4724 96.6214 22.7623 91.7091 22.7623C90.5608 22.7623 89.6047 22.5776 88.8192 22.3921C88.1527 22.2288 87.5084 22.0212 86.8116 22.0212C86.288 22.0327 85.7748 22.1698 85.3153 22.4209L84.9155 22.1992C84.5909 20.0035 84.1954 17.8189 83.7296 15.6488L86.4118 15.0044C87.116 18.3236 88.6567 19.8502 91.9995 19.8502C94.1926 19.8502 95.3712 18.784 95.4007 17.0719C95.4303 15.4271 94.5783 14.7458 93.0214 13.7232C92.3359 13.2886 91.6567 12.844 90.9842 12.3894C90.3344 11.9665 89.7265 11.4825 89.1687 10.9441C88.583 10.3463 88.1283 9.63299 87.8337 8.84967C87.539 8.06634 87.4109 7.23019 87.4574 6.39458C87.5165 2.83817 90.7027 0.318472 95.0224 0.318472C96.8298 0.318472 98.2389 0.770685 99.8682 0.859355C100.409 0.881523 101.321 0.762562 101.899 0.614778L102.27 0.911085H102.275V0.911817ZM56.0461 3.07537C56.0461 4.75714 54.2232 6.23128 52.3264 6.23128C51.3628 6.23128 50.2441 5.82414 50.2441 4.46822C50.2441 2.45246 52.2894 1.09655 53.986 1.09655C55.1054 1.09729 56.0461 1.84581 56.0461 3.07537ZM55.6168 7.0101L53.9867 16.9086C53.802 18.0207 53.7791 18.1382 55.3796 18.1382L55.0537 20.2278H47.5921L47.9106 18.1382C49.1409 18.1382 49.4963 17.8426 49.6005 17.1754L50.4303 11.7665C50.4746 11.4554 50.482 11.4259 50.1635 11.4259H48.4522L48.7714 9.60296L55.4328 6.82389L55.6168 7.0101ZM48.985 0.800985L46.3618 16.8273C46.169 18.0207 46.2953 18.1382 47.4879 18.1382L47.1621 20.2204H39.886L40.2118 18.1382C41.4865 18.1382 41.8049 17.8943 41.9461 16.9899L43.769 5.66822C43.8281 5.29802 43.7837 5.2463 43.5022 5.2463H41.8123L42.1382 3.39384L48.7995 0.622164L48.985 0.807637V0.800985ZM145.747 10.9145C145.709 9.72931 145.228 9.38867 144.539 9.38867C143.753 9.38867 142.635 10.3522 142.213 12.5002L145.747 10.9145ZM150 11.5589L141.865 15.3007C142.034 16.6936 142.813 17.6268 144.087 17.6268C145.421 17.6268 145.881 16.8783 145.881 16.5303C145.881 16.3791 145.835 16.2315 145.747 16.1084C145.643 15.9606 145.561 15.8719 145.561 15.6791C145.553 15.5612 145.591 15.4447 145.666 15.3532C145.899 15.105 146.182 14.9083 146.496 14.7756C146.81 14.6429 147.148 14.5771 147.488 14.5825C148.437 14.5825 149.282 15.2941 149.282 16.3759C149.282 18.7249 146.977 20.6291 143.369 20.6291C139.813 20.6291 137.271 18.4729 137.271 14.3904C137.271 10.7379 140.531 6.79581 144.599 6.79581C148.007 6.79507 149.489 8.5064 150 11.5589ZM118.213 11.5293C118.213 10.0552 117.732 9.38867 116.857 9.38867C115.582 9.38867 114.204 12.0857 114.204 15.9163C114.204 17.383 114.701 18.0281 115.567 18.0281C116.916 18.0281 118.22 14.9158 118.22 11.5293M122.843 12.6037C122.843 16.6204 119.954 20.6512 115.36 20.6512C111.863 20.6512 109.632 18.6133 109.632 14.5529C109.632 10.4113 112.759 6.74334 117.072 6.74334C120.428 6.74334 122.851 8.86255 122.851 12.597M77.8227 22.2887C77.8227 21.985 77.5411 21.7781 76.8887 21.7781C76.1409 21.7781 75.385 21.8815 74.6143 21.8815C73.4418 21.9258 72.2757 21.6894 71.2131 21.1921C70.6943 21.6 70.3833 22.067 70.3833 22.7409C70.3833 23.6084 71.5168 24.3192 72.7692 24.3192C76.0825 24.3185 77.8227 23.1111 77.8227 22.2887ZM78.5719 10.5953C78.5719 9.85492 78.2823 9.20246 77.6823 9.20246C76.319 9.20246 75.733 11.7296 75.733 13.2406C75.733 14.2929 75.9554 14.7377 76.6744 14.7377C77.8744 14.7377 78.5712 11.9815 78.5712 10.5879M86.9224 8.40295C86.9224 9.25492 86.1665 10.2998 85.4401 10.2998C85.203 10.2998 85.1209 10.1298 84.9953 9.95098C84.9149 9.83927 84.8006 9.75638 84.6695 9.71453C84.5675 9.6758 84.4594 9.65552 84.3502 9.65468C83.5722 9.65468 83.0165 10.5362 83.0165 11.315L83.0387 11.8485C83.0264 12.6921 82.7859 13.5166 82.3426 14.2345C81.76 15.1481 80.9574 15.9009 80.0084 16.424C79.0595 16.9471 77.9944 17.2237 76.9108 17.2286C76.0865 17.2573 75.2636 17.1392 74.4805 16.8798C74.346 17.0263 74.2673 17.2154 74.2581 17.414C74.2581 17.9616 74.6956 18.0805 75.3621 18.0805C76.7483 18.0805 77.9852 17.8729 79.2665 17.8729C81.4603 17.8729 83.0379 18.9547 83.0379 20.9771C83.0379 24.5704 77.5544 26.7569 72.4426 26.7569C69.4049 26.7569 66.4781 25.882 66.4781 23.3039C66.4781 22.0293 67.2192 21.0369 68.8862 20.2286H62.8397L63.1884 18.1389C64.4039 18.1094 64.5222 18.0214 64.633 17.2507L65.4333 11.9084C65.5374 11.2485 65.0926 10.7823 64.5296 10.7823C63.4773 10.7823 62.403 11.9675 62.2544 12.9236L61.5584 17.3401C61.469 17.8877 61.5879 18.1397 62.7362 18.1397L62.4104 20.2293H55.483L55.831 18.1397C57.0318 18.1397 57.068 17.9623 57.1648 17.3401L58.0544 11.8271C58.1135 11.4569 58.0544 11.4273 57.7877 11.4273H56.069L56.417 9.57487L63.0562 6.82537L63.2416 7.01083L62.9749 8.61872C64.3086 7.46306 65.6719 6.82537 66.8801 6.82537C68.9993 6.82537 70.036 8.80419 70.036 10.619C70.036 10.8192 69.9842 11.3158 69.9621 11.5086L69.051 17.2064C68.9402 17.8958 69.4212 18.0953 70.0884 18.1397C70.4217 16.8731 71.3631 16.214 72.4744 15.7618C72.055 15.3316 71.7271 14.8208 71.5106 14.2604C71.2941 13.6999 71.1933 13.1014 71.2145 12.501C71.2145 8.89286 74.4672 6.69236 77.7717 6.69236C79.2761 6.69236 81.1433 7.1963 82.1808 8.77389C82.93 7.46305 84.0037 6.69236 85.1217 6.69236C86.1222 6.69236 86.915 7.32931 86.915 8.39704M29.3719 11.5293C29.3719 10.0552 28.8828 9.38867 28.0086 9.38867C26.734 9.38867 25.3633 12.0857 25.3633 15.9163C25.3633 17.383 25.8599 18.0355 26.7266 18.0355C28.0751 18.0355 29.3719 14.9232 29.3719 11.5293ZM34.0027 12.6037C34.0027 16.6204 31.1128 20.6512 26.5116 20.6512C23.0217 20.6512 20.7842 18.6133 20.7842 14.5529C20.7842 10.4113 23.9113 6.74334 28.2236 6.74334C31.5879 6.74334 34.0035 8.86255 34.0035 12.597" fill="white"/>
</svg>
