<svg xmlns="http://www.w3.org/2000/svg" fill="none" viewBox="0 0 32 32" height="32" width="32">
<g opacity="0.6">
<path stroke-linejoin="round" stroke-linecap="round" stroke-width="1.5" stroke="black" d="M20.5467 5.01334L20.5467 3.21334C20.5467 2.54667 20 2 19.3334 2L13.4534 2C12.7867 2 12.24 2.54667 12.24 3.21333L12.24 5.01333M7.33337 25.8533L25.44 21.7867M21.4534 29.88L11.3334 29.88C9.12004 29.88 7.33337 28.0933 7.33337 25.88L7.33337 9.01333C7.33337 6.8 9.12004 5.01333 11.3334 5.01333L21.44 5.01334C23.6534 5.01334 25.44 6.8 25.44 9.01334L25.44 25.8667C25.44 28.08 23.6534 29.8667 21.44 29.8667L21.4534 29.88ZM19.6 8.49333L12.9867 15.1067L15.52 15.28L13.1734 20.9467L19.7867 14.3333L17.24 14.16L19.5867 8.50667L19.6 8.49333Z"></path>
</g>
</svg>
