<svg width="150" height="32" viewBox="0 0 150 32" fill="none" xmlns="http://www.w3.org/2000/svg">
<path d="M23.1064 31.2617H30.13V9.62856H23.1064V31.2617Z" fill="white"/>
<path d="M31.584 31.2617H38.6089V1.17009H31.584V31.2617Z" fill="white"/>
<path d="M40.0625 31.2617H47.0874V1.17009H40.0625V31.2617Z" fill="white"/>
<path d="M115.664 9.62992H122.689V11.8605C123.729 10.1773 125.267 9.50396 127.386 9.41927V16.8677H126.555C124.061 16.8677 122.689 18.299 122.689 20.951V31.262H115.664V9.62992Z" fill="white"/>
<path d="M22.5449 4.12452C22.5449 1.84711 24.369 0.000112534 26.6179 0.000112534C28.8679 0.000112534 30.6919 1.84711 30.6919 4.12452C30.6919 6.40203 28.8679 8.24902 26.6179 8.24902C24.369 8.24902 22.5449 6.40203 22.5449 4.12452Z" fill="white"/>
<path d="M114.209 9.66572H107.184V11.2768C106.199 10.1867 103.902 9.28557 102.156 9.28557C96.0262 9.28557 91.8926 14.0112 91.8926 20.6615C91.8926 27.3107 96.5436 31.6035 102.238 31.6035C103.984 31.6035 105.897 31.0138 107.184 30.0462V31.2669H114.209V21.7985C114.209 21.4103 114.207 21.0313 114.199 20.6615C114.207 20.2917 114.209 19.9127 114.209 19.5246V9.66572ZM102.557 24.4756C100.307 24.4756 98.4846 22.6275 98.4846 20.3502C98.4846 18.0726 100.307 16.2256 102.557 16.2256C104.807 16.2256 106.63 18.0726 106.63 20.3502C106.63 22.6275 104.807 24.4756 102.557 24.4756Z" fill="white"/>
<path d="M142.975 1.16827V10.7214C141.603 9.7538 140.024 9.33358 138.11 9.33358C132.251 9.33358 127.679 13.9206 127.679 20.5275C127.679 26.7554 132.085 31.553 137.446 31.553C139.65 31.553 141.436 30.8374 143.099 29.2812V31.2588H150V1.16827H142.975ZM138.839 24.621C136.589 24.621 134.766 22.7729 134.766 20.4954C134.766 18.2179 136.589 16.371 138.839 16.371C141.089 16.371 142.912 18.2179 142.912 20.4954C142.912 22.7729 141.089 24.621 138.839 24.621Z" fill="white"/>
<path d="M60.518 9.33956C58.6057 9.33956 57.0255 9.76097 55.6538 10.7274V1.17426H48.6289V31.2659H55.5289V29.2873C57.1927 30.8445 58.9789 31.5601 61.1832 31.5601C66.5442 31.5601 70.9503 26.7624 70.9503 20.5346C70.9503 13.9266 66.3782 9.33956 60.518 9.33956ZM59.7703 24.6739C57.5202 24.6739 55.6961 22.827 55.6961 20.5483C55.6961 18.272 57.5202 16.4251 59.7703 16.4251C62.0191 16.4251 63.8431 18.272 63.8431 20.5483C63.8431 22.827 62.0191 24.6739 59.7703 24.6739Z" fill="white"/>
<path d="M11.889 9.33956C9.97678 9.33956 8.39657 9.76097 7.02484 10.7274V1.17426H0V31.2659H6.89999V29.2873C8.56373 30.8445 10.35 31.5601 12.5542 31.5601C17.9152 31.5601 22.3213 26.7624 22.3213 20.5346C22.3213 13.9266 17.7504 9.33956 11.889 9.33956ZM11.1413 24.6739C8.89125 24.6739 7.06716 22.827 7.06716 20.5483C7.06716 18.272 8.89125 16.4251 11.1413 16.4251C13.3901 16.4251 15.2141 18.272 15.2141 20.5483C15.2141 22.827 13.3901 24.6739 11.1413 24.6739Z" fill="white"/>
<path d="M81.4482 9.15585C75.3794 9.15585 70.5576 14.2067 70.5576 20.3497C70.5576 26.4952 75.3369 31.5459 81.4482 31.5459C87.6004 31.5459 92.3385 26.4527 92.3385 20.3497C92.3385 14.249 87.5168 9.15585 81.4482 9.15585ZM81.4482 24.3448C79.1982 24.3448 77.3752 22.4979 77.3752 20.2192C77.3752 17.9428 79.1982 16.0949 81.4482 16.0949C83.6981 16.0949 85.5209 17.9428 85.5209 20.2192C85.5209 22.4979 83.6981 24.3448 81.4482 24.3448Z" fill="white"/>
</svg>
