<svg xmlns="http://www.w3.org/2000/svg" fill="none" viewBox="0 0 32 32" height="32" width="32">
<g opacity="0.6">
<path stroke-miterlimit="10" stroke-width="1.5" stroke="black" d="M16.6667 27.3333L16.6667 31.3333M18.0001 12.6667L15.3334 16.6667L18.0001 16.6667C18.0001 16.6667 16.3748 19.1046 15.3334 20.6667M23.0801 27.3333L10.2534 27.3333C9.37341 27.3333 8.66674 26.6267 8.66674 25.7467L8.66675 10.2533C8.66675 9.37333 9.37341 8.66667 10.2534 8.66667L23.0667 8.66667C23.9467 8.66667 24.6534 9.37334 24.6534 10.2533L24.6534 25.7333C24.6534 26.6133 23.9601 27.3333 23.0801 27.3333ZM22.0001 3.46667C22.0001 2.65334 21.3467 2 20.5334 2L12.8001 2C11.9867 2 11.3334 2.65333 11.3334 3.46667L11.3334 8.66667L22.0001 8.66667L22.0001 3.46667Z"></path>
</g>
</svg>
