<svg xmlns="http://www.w3.org/2000/svg" fill="none" viewBox="0 0 32 32" height="32" width="32">
<g opacity="0.6">
<path stroke-linejoin="round" stroke-linecap="round" stroke-width="1.5" stroke="black" d="M13.2533 13.4533C13.2533 13.4533 13.2799 15.32 14.9466 16.2667M7.33325 11.48L5.99992 8.81333M25.9999 11.48L27.3333 8.81334M25.9999 15.48L29.9999 18.1467L16.6666 24.8133L3.33325 18.1467L7.33325 15.48M26.6533 19.92L29.9999 22.1467L16.6666 28.8133L3.33325 22.1467L6.62658 19.9467M20.6666 8.01334C17.0399 3.74667 16.7066 2.21334 16.6666 2C16.6399 2.21334 16.3066 3.74667 12.6799 8.01333C8.45325 12.9867 10.8399 19.4667 16.6399 19.4933L16.7066 19.4933C22.4666 19.48 24.8933 12.9867 20.6666 8.01334Z"></path>
</g>
</svg>
