<svg xmlns="http://www.w3.org/2000/svg" fill="none" viewBox="0 0 42 42" height="42" width="42">
<path stroke-miterlimit="10" stroke-width="1.5" stroke="black" d="M21.666 32.3333V36.3333M22.9993 17.6667L20.3327 21.6667H22.9993C22.9993 21.6667 21.3741 24.1046 20.3327 25.6667M28.0793 32.3333H15.2527C14.3727 32.3333 13.666 31.6267 13.666 30.7467V15.2533C13.666 14.3733 14.3727 13.6667 15.2527 13.6667H28.066C28.946 13.6667 29.6527 14.3733 29.6527 15.2533V30.7333C29.6527 31.6133 28.9594 32.3333 28.0793 32.3333ZM26.9993 8.46667C26.9993 7.65333 26.346 7 25.5327 7H17.7993C16.986 7 16.3327 7.65333 16.3327 8.46667V13.6667H26.9993V8.46667Z"></path>
</svg>
