<svg width="35" height="35" viewBox="0 0 35 35" fill="none" xmlns="http://www.w3.org/2000/svg">
<g clip-path="url(#clip0_2930_67220)">
<path d="M21.1404 17.1001L15.2504 29.7101C14.8304 30.6201 13.7504 31.0101 12.8404 30.5801L11.5904 30.0001C10.6804 29.5801 10.2904 28.5001 10.7204 27.5901L15.2304 17.9401" stroke="black" stroke-width="1.5" stroke-miterlimit="10"/>
<path d="M17.9686 4.32774L15.0243 4.78723C11.4555 5.34417 9.01364 8.68648 9.57015 12.2525C10.1267 15.8185 13.4708 18.2579 17.0396 17.7009L19.984 17.2414C23.5527 16.6845 25.9946 13.3422 25.4381 9.77616C24.8816 6.21014 21.5374 3.7708 17.9686 4.32774Z" stroke="black" stroke-width="1.5" stroke-miterlimit="10"/>
<path d="M21.6422 8.35266L19.6661 8.66104C18.8476 8.78878 18.2876 9.55588 18.4154 10.3744C18.5431 11.1929 19.3102 11.7529 20.1287 11.6252L22.1048 11.3168C22.9233 11.189 23.4833 10.4219 23.3556 9.60343C23.2278 8.78491 22.4607 8.22492 21.6422 8.35266Z" fill="black"/>
<path d="M13.4034 14.2436C14.2583 14.0427 14.7025 12.8208 14.3956 11.5143C14.0887 10.2079 13.1469 9.31154 12.292 9.51236C11.4371 9.71318 10.9929 10.9351 11.2999 12.2416C11.6068 13.5481 12.5486 14.4444 13.4034 14.2436Z" fill="black"/>
<path d="M11.3901 26.49L15.3901 28.49" stroke="black" stroke-miterlimit="10"/>
</g>
<defs>
<clipPath id="clip0_2930_67220">
<rect width="17.52" height="28" fill="white" transform="translate(8.74023 3.5)"/>
</clipPath>
</defs>
</svg>
