<svg width="35" height="35" viewBox="0 0 35 35" fill="none" xmlns="http://www.w3.org/2000/svg">
<path d="M7.625 16.5C7.625 15.8096 8.18464 15.25 8.875 15.25H13.875C14.5654 15.25 15.125 15.8096 15.125 16.5V23C15.125 25.0711 13.4461 26.75 11.375 26.75C9.30393 26.75 7.625 25.0711 7.625 23V16.5Z" stroke="#171717" stroke-width="1.5"/>
<path d="M10 15.5V6.33333C10 6.33333 10.75 4.5 11.5 4.5C12.25 4.5 13 6.33333 13 6.33333V15.5" stroke="#171717" stroke-width="1.5"/>
<line x1="10.125" y1="9" x2="13.125" y2="9" stroke="#171717"/>
<path d="M27.375 19.4167C27.375 19.8309 27.7108 20.1667 28.125 20.1667C28.5392 20.1667 28.875 19.8309 28.875 19.4167H27.375ZM20.8561 26.0094V15.5094H19.3561V26.0094H20.8561ZM27.375 15.5094V19.4167H28.875V15.5094H27.375ZM24.1156 12.25C25.9157 12.25 27.375 13.7093 27.375 15.5094H28.875C28.875 12.8809 26.7441 10.75 24.1156 10.75V12.25ZM20.8561 15.5094C20.8561 13.7093 22.3154 12.25 24.1156 12.25V10.75C21.487 10.75 19.3561 12.8809 19.3561 15.5094H20.8561ZM15.5868 31.25C18.4748 31.25 20.8561 28.9099 20.8561 26.0094H19.3561C19.3561 28.0691 17.6589 29.75 15.5868 29.75V31.25ZM10.375 26.0667C10.375 28.9356 12.7303 31.25 15.5868 31.25V29.75C13.5463 29.75 11.875 28.0947 11.875 26.0667H10.375Z" fill="#171717"/>
<line x1="10.125" y1="12" x2="13.125" y2="12" stroke="#171717"/>
</svg>
