<svg width="35" height="35" viewBox="0 0 35 35" fill="none" xmlns="http://www.w3.org/2000/svg">
<g clip-path="url(#clip0_2930_67172)">
<path d="M7.5 19.6401L11.5 29.6401" stroke="black" stroke-miterlimit="10"/>
<path d="M29.87 21.23L29 20.73L27 19.73C25 18.73 24 20.73 24 20.73C24 20.73 21 26.73 22 28.73C23 30.73 26 30.73 26 30.73C26 30.73 28 30.73 29 27.73C29.7 25.64 30 19.34 30 18.73C30 16.73 30 12.73 27 8.73002C24 4.73002 19 4.27002 17.5 4.27002C16 4.27002 11 4.73002 8 8.73002C5 12.73 5 16.73 5 18.73C5 19.34 5.3 25.64 6 27.73C7 30.73 9 30.73 9 30.73C9 30.73 12 30.73 13 28.73C14 26.73 11 20.73 11 20.73C11 20.73 10 18.73 8 19.73L6 20.73L5.13 21.23" stroke="black" stroke-width="1.5" stroke-miterlimit="10"/>
<path d="M27.5 19.6401L23.5 29.6401" stroke="black" stroke-miterlimit="10"/>
</g>
<defs>
<clipPath id="clip0_2930_67172">
<rect width="26.5" height="27.96" fill="white" transform="translate(4.25 3.52002)"/>
</clipPath>
</defs>
</svg>
