<svg xmlns="http://www.w3.org/2000/svg" fill="none" viewBox="0 0 32 32" height="32" width="32">
<g clip-path="url(#clip0_12160_188)" opacity="0.5">
<path stroke-linejoin="round" stroke-linecap="round" stroke-width="1.5" stroke="black" d="M19.8166 11.9495C21.4251 11.4084 22.5218 10.4287 23.2968 8.46926M21.6883 15.8684C23.209 16.6142 24.6713 16.7165 26.6015 15.8684M20.2406 19.9482C20.7817 21.5567 21.7614 22.6534 23.7208 23.4284M16.3363 21.8053C15.5906 23.326 15.4882 24.7883 16.3363 26.7185M12.2566 20.3722C10.6481 20.9133 9.55135 21.893 8.77634 23.8524M10.3848 16.4533C8.86408 15.7075 7.4018 15.6052 5.47159 16.4533M11.8325 12.3735C11.2915 10.765 10.3117 9.66833 8.35228 8.89332M15.7368 10.5165C16.4826 8.99568 16.5849 7.5334 15.7368 5.60319M30.6667 16C30.6667 24.101 24.101 30.6667 16 30.6667C7.89897 30.6667 1.33333 24.101 1.33333 16C1.33334 7.89897 7.89897 1.33334 16 1.33334C24.101 1.33334 30.6667 7.89898 30.6667 16ZM16 5.39848C10.1216 5.39847 5.33998 10.1655 5.33998 16.0585C5.33998 21.9515 10.107 26.7185 16 26.7185C21.893 26.7185 26.66 21.9515 26.66 16.0585C26.66 10.1655 21.893 5.39848 16 5.39848ZM16.0292 10.6919C13.0754 10.6919 10.6919 13.0901 10.6919 16.0292C10.6919 18.9684 13.0901 21.3666 16.0292 21.3666C18.9684 21.3666 21.3666 18.9684 21.3666 16.0292C21.3666 13.0901 18.9684 10.6919 16.0292 10.6919Z"></path>
</g>
<defs>
<clipPath id="clip0_12160_188">
<rect fill="white" height="32" width="32"></rect>
</clipPath>
</defs>
</svg>
