<svg width="35" height="35" viewBox="0 0 35 35" fill="none" xmlns="http://www.w3.org/2000/svg">
<path d="M6.5 17.2505C6.5 22.7505 7.75 27.7505 10 29.2505C12.25 30.7505 13.0001 30.7505 17.5 30.7505" stroke="black" stroke-width="1.5"/>
<path d="M6.5 17.7505C6.5 12.2505 8 7.35049 10 5.75049C12 4.15049 13.0001 4.25049 17.5 4.25049" stroke="black" stroke-width="1.5"/>
<path d="M28.5 17.7505C28.5 12.2505 27 7.35049 25 5.75049C23 4.15049 21.9999 4.25049 17.5 4.25049" stroke="black" stroke-width="1.5"/>
<path d="M28.5 17.2505C28.5 22.7505 27.25 27.7505 25 29.2505C22.75 30.7505 21.9999 30.7505 17.5 30.7505" stroke="black" stroke-width="1.5"/>
<circle cx="17.5" cy="21.2505" r="3.25" stroke="#171717" stroke-width="1.5"/>
<circle cx="17.5" cy="11.2505" r="2" fill="#171717"/>
</svg>
